<?xml version="1.0" encoding="UTF-8" standalone="no"?>
<!DOCTYPE svg PUBLIC "-//W3C//DTD SVG 1.1//EN" "http://www.w3.org/Graphics/SVG/1.1/DTD/svg11.dtd">
<svg version="1.1" xmlns="http://www.w3.org/2000/svg" xmlns:xlink="http://www.w3.org/1999/xlink" preserveAspectRatio="xMidYMid meet" viewBox="125.45270270270271 125.45270270270271 391.0945945945946 391.0945945945946" width="387.09" height="387.09"><defs><path d="M513.55 320C513.55 426.82 426.82 513.55 320 513.55C213.18 513.55 126.45 426.82 126.45 320C126.45 213.18 213.18 126.45 320 126.45C426.82 126.45 513.55 213.18 513.55 320Z" id="e7fQVDpoK"></path><path d="M220.91 224.36C226.52 218.75 235.61 218.75 241.21 224.36C278.82 261.96 381.48 364.63 419.09 402.23C424.7 407.84 424.7 416.93 419.09 422.54C417.06 424.57 421.12 420.51 419.09 422.54C413.48 428.14 404.39 428.14 398.79 422.54C361.18 384.93 258.52 282.27 220.91 244.66C215.3 239.05 215.3 229.96 220.91 224.36C222.94 222.32 218.88 226.39 220.91 224.36Z" id="eaAqEnzPL"></path><path d="M419.09 224.36C413.48 218.75 404.39 218.75 398.79 224.36C361.18 261.96 258.52 364.63 220.91 402.23C215.3 407.84 215.3 416.93 220.91 422.54C222.94 424.57 218.88 420.51 220.91 422.54C226.52 428.14 235.61 428.14 241.21 422.54C278.82 384.93 381.48 282.27 419.09 244.66C424.7 239.05 424.7 229.96 419.09 224.36C417.06 222.32 421.12 226.39 419.09 224.36Z" id="c92nG5F0"></path></defs><g><g><use xlink:href="#e7fQVDpoK" opacity="1" fill="#ffffff" fill-opacity="1"></use></g><g><g><use xlink:href="#eaAqEnzPL" opacity="1" fill="#232323" fill-opacity="1"></use></g><g><use xlink:href="#c92nG5F0" opacity="1" fill="#232323" fill-opacity="1"></use></g></g></g></svg>