<?xml version="1.0" encoding="UTF-8" standalone="no"?>
<!DOCTYPE svg PUBLIC "-//W3C//DTD SVG 1.1//EN" "http://www.w3.org/Graphics/SVG/1.1/DTD/svg11.dtd">
<svg version="1.1" xmlns="http://www.w3.org/2000/svg" xmlns:xlink="http://www.w3.org/1999/xlink" preserveAspectRatio="xMidYMid meet" viewBox="30.1351351351351 42.7702702702702 382.85343860117877 455.2732734381866" width="374.85" height="447.27"><defs><path d="M315.41 187.91C315.41 265.25 252.61 328.04 175.27 328.04C97.93 328.04 35.14 265.25 35.14 187.91C35.14 110.56 97.93 47.77 175.27 47.77C252.61 47.77 315.41 110.56 315.41 187.91Z" id="a15u6hsC1X"></path><mask id="maskblsbsB9hR" x="25.14" y="37.77" width="300.27" height="300.27" maskUnits="userSpaceOnUse"><rect x="25.14" y="37.77" width="300.27" height="300.27" fill="white"></rect><use xlink:href="#a15u6hsC1X" opacity="1" fill="black"></use></mask><path d="M265.66 297.96C271.44 293.71 279.57 294.94 283.82 300.72C310.08 336.41 381.19 433.01 407.46 468.7C411.71 474.48 410.48 482.61 404.7 486.86C401.07 489.53 400.64 489.84 397.01 492.52C391.24 496.77 383.11 495.53 378.86 489.76C352.59 454.07 281.48 357.46 255.22 321.77C250.96 315.99 252.2 307.87 257.98 303.62C261.6 300.94 262.03 300.63 265.66 297.96Z" id="a51yCFdopX"></path><path d="M297.6 187.91C297.6 255.42 242.79 310.24 175.27 310.24C107.75 310.24 52.94 255.42 52.94 187.91C52.94 120.39 107.75 65.57 175.27 65.57C242.79 65.57 297.6 120.39 297.6 187.91Z" id="c1AUV6BR9A"></path><mask id="maska5u4LRL59c" x="42.94" y="55.57" width="264.66" height="264.66" maskUnits="userSpaceOnUse"><rect x="42.94" y="55.57" width="264.66" height="264.66" fill="white"></rect><use xlink:href="#c1AUV6BR9A" opacity="1" fill="black"></use></mask></defs><g><g><g mask="url(#maskblsbsB9hR)"><use xlink:href="#a15u6hsC1X" opacity="1" fill-opacity="0" stroke="#353535" stroke-width="10" stroke-opacity="1"></use></g></g><g><g><use xlink:href="#a51yCFdopX" opacity="1" fill-opacity="0" stroke="#353535" stroke-width="5" stroke-opacity="1"></use></g></g><g><g mask="url(#maska5u4LRL59c)"><use xlink:href="#c1AUV6BR9A" opacity="1" fill-opacity="0" stroke="#353535" stroke-width="10" stroke-opacity="1"></use></g></g></g></svg>