<?xml version="1.0" encoding="UTF-8" standalone="no"?>
<!DOCTYPE svg PUBLIC "-//W3C//DTD SVG 1.1//EN" "http://www.w3.org/Graphics/SVG/1.1/DTD/svg11.dtd">
<svg version="1.1" xmlns="http://www.w3.org/2000/svg" xmlns:xlink="http://www.w3.org/1999/xlink" preserveAspectRatio="xMidYMid meet" viewBox="222.44827586206907 181.697 270.66666666666674 270.61334482758616" width="266.67" height="266.61"><defs><path d="M341.87 191.02L338.99 193.39L336.21 195.87L333.52 198.46L330.93 201.15L328.45 203.93L326.07 206.81L323.81 209.78L321.65 212.84L319.62 215.98L317.7 219.2L315.91 222.51L314.24 225.89L312.7 229.34L311.29 232.86L310.01 236.44L308.88 240.09L307.88 243.8L307.03 247.56L306.33 251.38L305.78 255.25L305.38 259.17L305.14 263.13L305.06 267.13L305.14 271.13L305.38 275.09L305.78 279L306.33 282.87L307.03 286.69L307.88 290.46L308.88 294.16L310.01 297.81L311.29 301.4L312.7 304.92L314.24 308.37L315.91 311.75L317.7 315.05L319.62 318.27L321.65 321.41L323.81 324.47L326.07 327.44L328.45 330.32L330.93 333.1L333.52 335.79L336.21 338.38L338.99 340.86L341.87 343.24L344.84 345.5L347.9 347.66L351.04 349.69L354.26 351.61L357.56 353.41L360.94 355.07L364.39 356.62L367.91 358.02L371.5 359.3L375.15 360.43L378.85 361.43L382.62 362.28L386.44 362.98L390.31 363.53L394.22 363.93L398.18 364.17L402.18 364.25L406.18 364.17L410.14 363.93L414.06 363.53L417.93 362.98L421.75 362.28L425.51 361.43L429.22 360.43L432.87 359.3L436.46 358.02L439.97 356.62L443.43 355.07L446.8 353.41L450.11 351.61L453.33 349.69L456.47 347.66L459.53 345.5L462.5 343.24L465.38 340.86L468.16 338.38L470.85 335.79L473.44 333.1L475.92 330.32L478.29 327.44L480.56 324.47L482.71 321.41L484.75 318.27L486.67 315.05L488.46 311.75L489.9 308.83L490 310.48L490.11 315.98L490 321.47L489.67 326.91L489.13 332.28L488.37 337.59L487.4 342.83L486.24 348L484.87 353.09L483.31 358.1L481.56 363.02L479.63 367.86L477.51 372.59L475.22 377.23L472.76 381.76L470.13 386.19L467.33 390.5L464.38 394.7L461.26 398.78L458 402.73L454.59 406.55L451.04 410.24L447.36 413.79L443.53 417.2L439.58 420.46L435.51 423.57L431.31 426.53L426.99 429.32L422.57 431.95L418.03 434.42L413.4 436.71L408.66 438.83L403.83 440.76L398.91 442.51L393.9 444.07L388.81 445.43L383.64 446.6L378.4 447.56L373.09 448.32L367.71 448.87L362.27 449.2L356.78 449.31L351.29 449.2L345.85 448.87L340.48 448.32L335.17 447.56L329.92 446.6L324.76 445.43L319.67 444.07L314.66 442.51L309.73 440.76L304.9 438.83L300.17 436.71L295.53 434.42L291 431.95L286.57 429.32L282.26 426.53L278.06 423.57L273.98 420.46L270.03 417.2L266.21 413.79L262.52 410.24L258.97 406.55L255.56 402.73L252.3 398.78L249.19 394.7L246.23 390.5L243.44 386.19L240.8 381.76L238.34 377.23L236.05 372.59L233.93 367.86L232 363.02L230.25 358.1L228.69 353.09L227.33 348L226.16 342.83L225.19 337.59L224.44 332.28L223.89 326.91L223.56 321.47L223.45 315.98L223.56 310.48L223.89 305.05L224.44 299.67L225.19 294.36L226.16 289.12L227.33 283.95L228.69 278.86L230.25 273.85L232 268.93L233.93 264.1L236.05 259.36L238.34 254.72L240.8 250.19L243.44 245.76L246.23 241.45L249.19 237.25L252.3 233.18L255.56 229.23L258.97 225.4L262.52 221.71L266.21 218.16L270.03 214.76L273.98 211.49L278.06 208.38L282.26 205.43L286.57 202.63L291 200L295.53 197.54L300.17 195.24L304.9 193.13L309.73 191.19L314.66 189.45L319.67 187.89L324.76 186.52L329.92 185.35L335.17 184.39L340.48 183.63L345.85 183.09L351.29 182.75L354.17 182.7L351.04 184.56L347.9 186.6L344.84 188.75L344.84 188.75L341.87 191.02Z" id="bcGK3bchl"></path></defs><g><g><use xlink:href="#bcGK3bchl" opacity="1" fill="#e8e8e8" fill-opacity="1"></use></g></g></svg>